<?xml version="1.0" standalone="no"?>
<!DOCTYPE svg PUBLIC "-//W3C//DTD SVG 20010904//EN"
 "http://www.w3.org/TR/2001/REC-SVG-20010904/DTD/svg10.dtd">
<svg version="1.0" xmlns="http://www.w3.org/2000/svg"
 width="635.000000pt" height="479.000000pt" viewBox="0 0 635.000000 479.000000"
 preserveAspectRatio="xMidYMid meet">

<g transform="translate(0.000000,479.000000) scale(0.100000,-0.100000)"
fill="#000000" stroke="none">
<path d="M4530 4389 c-262 -72 -326 -91 -446 -134 -163 -59 -441 -195 -559
-273 -301 -200 -496 -467 -578 -790 -19 -75 -22 -114 -22 -282 1 -207 6 -242
61 -413 l25 -79 -58 -66 c-114 -131 -149 -169 -313 -333 -178 -179 -269 -256
-425 -359 -350 -231 -707 -334 -1240 -358 l-160 -7 77 -13 c232 -36 523 -39
713 -8 44 8 83 11 87 7 29 -26 236 -520 263 -626 31 -121 13 -155 -112 -219
-36 -18 -53 -33 -53 -45 0 -42 35 -31 269 83 130 63 319 149 421 191 457 191
768 331 803 363 36 32 39 58 17 149 -29 123 -99 330 -120 356 -18 21 -20 21
-36 5 -14 -14 -15 -23 -5 -62 6 -25 11 -78 11 -118 0 -167 -75 -237 -410 -381
-135 -58 -220 -80 -290 -74 -51 4 -57 7 -103 58 -33 37 -78 113 -143 242 -51
103 -94 194 -94 202 0 9 38 34 93 61 110 55 280 167 397 260 129 103 399 379
662 674 447 504 689 710 1036 884 286 143 725 241 1115 247 55 1 58 2 27 9
-145 35 -540 37 -745 5 -453 -71 -846 -277 -1233 -647 -45 -44 -86 -77 -91
-73 -5 3 -20 47 -32 98 -20 77 -24 118 -24 257 0 142 3 176 23 243 69 241 212
401 477 536 238 120 534 179 705 140 118 -27 237 -118 304 -232 41 -70 58 -84
76 -62 19 23 5 73 -74 253 -41 92 -86 203 -101 247 -36 105 -42 115 -68 114
-12 -1 -69 -14 -127 -30z"/>
</g>
</svg>
